# xmcd
#
# Track frame offsets: 
#        150
#        15394
#        29217
#        38997
#        52890
#        66884
#        78677
#        92215
#        105136
#        122777
#
# Disc length: 1774 seconds
#
# Revision: 0
# Processed by: cddbd v1.5.1PL0 Copyright (c) Steve Scherf et al.
# Submitted via: ExactAudioCopy v0.95a5
#
DISCID=7d06ec0a
DTITLE=B.B. King - Gospel Blues
DYEAR=2004
DGENRE=Blues
TTITLE0=Precious Lord
TTITLE1=Servant's Prayer
TTITLE2=Swing Low Sweet Chariot/Rock Me Lord
TTITLE3=Jesus gave me water
TTITLE4=Save a seat for me
TTITLE5=I never heard a man
TTITLE6=Army of the Lord
TTITLE7=I'm working on the building
TTITLE8=That evil child
TTITLE9=I'm willing to run all the way
EXTD=
EXTT0=
EXTT1=
EXTT2=
EXTT3=
EXTT4=
EXTT5=
EXTT6=
EXTT7=
EXTT8=
EXTT9=
PLAYORDER=
